<svg version="1.1" id="Layer_1" xmlns="http://www.w3.org/2000/svg" xmlns:xlink="http://www.w3.org/1999/xlink" x="0px" y="0px" viewBox="0 0 672.15 389.92" style="enable-background:new 0 0 672.15 389.92;" xml:space="preserve" width="100%" height="100%" preserveAspectRatio="none"><style type="text/css"> .st0{fill:#B3FF66;} .st1{display:none;fill:#00FF00;} .st2{fill:#00FF00;} .st3{fill:none;stroke:#00FF00;stroke-miterlimit:10;} .st4{clip-path:url(#SVGID_00000126289279951244804730000000782654246496139153_);} .st5{fill:#00FF00;stroke:#000000;stroke-linecap:round;stroke-linejoin:round;stroke-miterlimit:10;} .st6{fill:#B3FF66;stroke:#000000;stroke-linecap:round;stroke-linejoin:round;stroke-miterlimit:10;} .st7{fill:#FFFFFF;stroke:#000000;stroke-linecap:round;stroke-linejoin:round;stroke-miterlimit:10;} .st8{clip-path:url(#SVGID_00000148628196526203146570000007149905116039913918_);} .st9{fill:#00FF00;stroke:#000000;stroke-miterlimit:10;} .st10{fill:#FFFFFF;} .st11{fill:none;stroke:#000000;stroke-miterlimit:10;} .st12{fill:none;stroke:#B3FF66;} .st13{clip-path:url(#SVGID_00000131342804089390940810000017959649343878732460_);} .st14{stroke:#FFFFFF;stroke-linecap:round;stroke-linejoin:round;stroke-miterlimit:10;} .st15{clip-path:url(#SVGID_00000026841615833000429540000012310510722231281539_);} .st16{fill:#262B32;stroke:#FFFFFF;stroke-linecap:round;stroke-linejoin:round;stroke-miterlimit:10;} .st17{clip-path:url(#SVGID_00000183959742052709409300000002428394321161304469_);} .st18{fill:none;stroke:#000000;stroke-width:2.5689;stroke-miterlimit:10;} </style><g><polygon class="st7" points="327.48,2.42 428.48,61.81 507.08,150.79 669.32,96.65 545.75,28.54 "/><polygon class="st5" points="454.16,17.58 528.74,75.23 492.86,161.18 569.51,81.45 489.59,21.73 "/><polygon class="st9" points="326.69,2.13 427.7,61.52 117.1,310.11 4.25,232.61 "/><g><path class="st6" d="M568.61,81.11l-54.32,43.18l13.55-49.4l-99.99-15.25L295.52,165.43L117.1,310.11l170.93,26.07l48.39-37.67 l-11.82,43.11l104.16,15.88l48.38-37.62l-11.85,43.19l124.87,19.05l78.37-285.78L568.61,81.11z"/></g></g></svg>