<svg width="146.054" height="11" viewBox="0 0 146.054 11" xmlns="http://www.w3.org/2000/svg"><path d="M5.149 9.06H.675V2.221h4.447V3.26H1.913v1.856h2.979v1.039H1.913v1.867H5.15V9.06zm2.394-3.005V9.06H6.334V3.931H7.49v.872h.06q.177-.431.566-.685.389-.254.963-.254.531 0 .927.227.395.227.614.658.219.43.215 1.045V9.06H9.627V5.981q0-.514-.266-.804-.265-.29-.733-.29-.317 0-.562.138-.246.138-.384.399-.139.26-.139.63zM11.68 3.93h2.949v.935H11.68v-.935zm.728 3.787V2.702h1.209v4.815q0 .244.075.373.075.128.199.175.123.047.274.047.113 0 .208-.017.095-.017.146-.03l.203.945q-.097.033-.275.073-.179.04-.436.047-.454.013-.818-.138-.364-.152-.576-.473-.212-.32-.209-.801zM16.85 9.06H15.64V3.931h1.173v.855h.053q.14-.444.482-.686.343-.242.783-.242.1 0 .226.008.125.008.209.025v1.112q-.077-.027-.243-.048-.165-.022-.318-.022-.331 0-.593.142-.262.142-.412.392-.15.25-.15.578V9.06zm4.578.1q-.771 0-1.33-.322-.56-.322-.86-.915-.3-.593-.3-1.397 0-.792.301-1.391.303-.6.847-.935.544-.336 1.279-.336.474 0 .896.152.423.152.748.47.326.317.513.806.187.489.187 1.163v.371h-4.204v-.815h3.045q-.003-.347-.15-.619t-.41-.43q-.261-.156-.609-.156-.37 0-.65.179-.281.178-.436.467-.156.289-.16.633v.711q0 .448.165.766.163.32.457.488.294.169.688.169.264 0 .477-.076.214-.075.371-.222.157-.147.237-.364l1.129.127q-.107.448-.406.78-.299.332-.763.514t-1.062.182z"/><path d="M29.818 3.624L27.995 9.06h-1.322l2.407-6.839h1.53l2.41 6.839h-1.322l-1.826-5.436h-.054zm-1.78 3.75v-.995h3.607v.995h-3.606zm7.04 3.61h-1.21V3.93h1.19v.848h.07q.093-.187.263-.399.17-.212.461-.364.29-.152.742-.152.594 0 1.073.303.48.302.761.891.283.59.283 1.444 0 .845-.278 1.436-.277.591-.754.902-.478.31-1.082.31-.44 0-.731-.147-.29-.147-.466-.355-.176-.21-.272-.396h-.05v2.731zm-.024-4.488q0 .497.142.871t.41.583q.27.208.654.208.4 0 .67-.215.271-.215.41-.591.138-.376.138-.856 0-.478-.137-.849-.136-.37-.407-.58-.27-.211-.674-.211-.388 0-.658.204-.27.203-.41.57-.138.368-.138.866zM41.98 9.16q-.752 0-1.303-.33-.55-.331-.853-.925-.302-.595-.302-1.39 0-.794.302-1.392.302-.598.853-.928.551-.33 1.303-.33.75 0 1.302.33.55.33.853.928.302.598.302 1.393 0 .794-.302 1.389-.302.594-.853.925-.551.33-1.302.33zm.006-.968q.408 0 .681-.226.274-.225.41-.606.135-.38.135-.848 0-.47-.136-.853-.135-.382-.409-.61-.273-.226-.68-.226-.418 0-.694.227-.275.227-.41.61-.136.381-.136.852 0 .468.136.848.135.381.41.606.276.226.693.226zm7.527-2.905l-1.102.12q-.047-.167-.162-.314t-.31-.237q-.193-.09-.473-.09-.378 0-.633.163-.255.164-.252.425-.004.223.165.364.169.14.56.23l.874.187q.728.157 1.084.497.355.341.359.892-.004.484-.282.853-.28.37-.773.576-.495.207-1.136.207-.941 0-1.516-.396-.574-.395-.684-1.103l1.179-.114q.08.348.34.525.26.177.678.177.43 0 .693-.177.262-.177.262-.438 0-.22-.169-.364-.168-.143-.522-.22l-.875-.184q-.738-.153-1.092-.519-.354-.366-.35-.927-.004-.474.258-.823t.731-.54q.47-.193 1.084-.193.902 0 1.42.384.52.384.644 1.039zm.72-1.356h2.95v.935h-2.95v-.935zm.729 3.787V2.702h1.209v4.815q0 .244.075.373.075.128.198.175.124.047.274.047.114 0 .209-.017.095-.017.145-.03l.204.945q-.097.033-.276.073-.178.04-.435.047-.455.013-.819-.138-.363-.152-.576-.473-.212-.32-.208-.801zm5.45 1.442q-.772 0-1.331-.322-.56-.322-.86-.915-.3-.593-.3-1.397 0-.792.301-1.391.303-.6.847-.935.544-.336 1.279-.336.474 0 .896.152.423.152.748.47.326.317.513.806.187.489.187 1.163v.371h-4.204v-.815h3.045q-.003-.347-.15-.619t-.41-.43q-.261-.156-.609-.156-.37 0-.65.179-.281.178-.436.467-.156.289-.159.633v.711q0 .448.164.766.163.32.457.488.294.169.688.169.264 0 .477-.076.214-.075.371-.222.157-.147.237-.364l1.129.127q-.107.448-.406.78-.299.332-.763.514t-1.062.182z" fill="#fff"/><path d="M67.945 4.405h-1.263q-.083-.27-.228-.486-.146-.215-.348-.369-.202-.153-.462-.232-.26-.078-.568-.078-.55 0-.981.277-.431.277-.677.813-.245.536-.245 1.304 0 .775.244 1.312.243.538.678.817.434.279 1.008.279.52 0 .903-.2.383-.201.59-.57.207-.37.207-.867l.28.044h-1.856V5.48H68v.822q0 .878-.374 1.52-.374.64-1.028.986-.655.345-1.503.345-.945 0-1.658-.425-.712-.426-1.112-1.212-.399-.787-.399-1.869 0-.828.236-1.479.235-.651.66-1.107.423-.456.994-.694.571-.239 1.243-.239.567 0 1.058.165.49.166.873.47.383.303.63.72.247.418.324.922zm2.678 4.759q-.488 0-.877-.176-.389-.175-.614-.519-.226-.344-.226-.848 0-.434.16-.718t.438-.454q.277-.17.626-.259.349-.088.723-.129.45-.046.731-.085.28-.038.41-.12.128-.082.128-.255v-.02q0-.378-.224-.585-.224-.207-.644-.207-.444 0-.703.194-.259.194-.35.457l-1.128-.16q.134-.467.441-.783.307-.315.751-.474.444-.159.982-.159.37 0 .738.087.367.087.671.286.304.198.49.539.185.34.185.851V9.06h-1.162v-.705h-.04q-.11.214-.31.4-.198.185-.497.297-.299.112-.7.112zm.313-.889q.364 0 .632-.145.267-.145.412-.386.145-.24.145-.524v-.604q-.057.047-.192.087-.135.04-.302.07-.167.03-.33.053l-.284.04q-.27.037-.485.12-.213.084-.337.232-.123.15-.123.383 0 .334.243.504.244.17.621.17zm4.822-2.22V9.06H74.55V3.931h1.156v.872h.06q.177-.431.566-.685.389-.254.963-.254.531 0 .927.227.395.227.614.658.219.43.216 1.045V9.06h-1.21V5.981q0-.514-.265-.804-.265-.29-.733-.29-.317 0-.562.138-.246.138-.384.399-.139.26-.139.63zm5.733 0V9.06h-1.208V2.221h1.182v2.582h.06q.18-.434.56-.687.378-.252.966-.252.534 0 .931.224.398.224.616.655.22.43.22 1.051V9.06h-1.21V5.981q0-.517-.265-.806-.265-.289-.743-.289-.32 0-.573.139-.252.138-.394.399-.142.26-.142.63zm6.826 3.105q-.772 0-1.331-.322-.56-.322-.86-.915-.3-.593-.3-1.397 0-.792.302-1.391.302-.6.846-.935.545-.336 1.28-.336.473 0 .896.152.422.152.748.47.325.317.512.806.187.489.187 1.163v.371h-4.204v-.815h3.046q-.004-.347-.15-.619-.148-.272-.41-.43-.262-.156-.61-.156-.37 0-.65.179-.28.178-.436.467-.155.289-.159.633v.711q0 .448.164.766.164.32.457.488.294.169.688.169.264 0 .478-.076.213-.075.37-.222.157-.147.238-.364l1.128.127q-.107.448-.406.78-.298.332-.763.514-.464.182-1.061.182z"/></svg>