<svg version="1.1" id="Layer_1" xmlns="http://www.w3.org/2000/svg" xmlns:xlink="http://www.w3.org/1999/xlink" x="0px" y="0px" viewBox="0 0 353.79 298.44" style="enable-background:new 0 0 353.79 298.44;" xml:space="preserve" width="100%" height="100%" preserveAspectRatio="none"><style type="text/css"> .st0{fill:#B3FF66;} .st1{display:none;fill:#00FF00;} .st2{fill:#00FF00;} .st3{fill:none;stroke:#00FF00;stroke-miterlimit:10;} .st4{clip-path:url(#SVGID_00000177468659323942051010000001541983509293076622_);} .st5{fill:#00FF00;stroke:#000000;stroke-linecap:round;stroke-linejoin:round;stroke-miterlimit:10;} .st6{fill:#B3FF66;stroke:#000000;stroke-linecap:round;stroke-linejoin:round;stroke-miterlimit:10;} .st7{fill:#FFFFFF;stroke:#000000;stroke-linecap:round;stroke-linejoin:round;stroke-miterlimit:10;} .st8{clip-path:url(#SVGID_00000169556173555095322550000000257690643554289839_);} .st9{fill:#00FF00;stroke:#000000;stroke-miterlimit:10;} .st10{fill:#FFFFFF;} .st11{fill:none;stroke:#000000;stroke-miterlimit:10;} .st12{fill:none;stroke:#B3FF66;} .st13{clip-path:url(#SVGID_00000005230326735469516800000015088202962443605416_);} .st14{stroke:#FFFFFF;stroke-linecap:round;stroke-linejoin:round;stroke-miterlimit:10;} .st15{clip-path:url(#SVGID_00000044874875410822500540000010419165174479429767_);} .st16{fill:#262B32;stroke:#FFFFFF;stroke-linecap:round;stroke-linejoin:round;stroke-miterlimit:10;} .st17{clip-path:url(#SVGID_00000158000969397363708750000006378549799071385232_);} .st18{fill:none;stroke:#000000;stroke-width:2.5689;stroke-miterlimit:10;} </style><g><path class="st5" d="M326.05,218.04L162.78,29.81L117.75,4.6L5.67,190.88l41.17,25.05l247.5,49.46L326.05,218.04z M263.43,219.03 L73.25,171.32l60.49-98.96l132.88,143.91L263.43,219.03z"/><polygon class="st6" points="326.05,218.04 348.45,243.87 318.07,294.18 294.34,265.38 "/><polygon class="st6" points="46.84,215.93 70.17,242.82 318.07,294.18 294.34,265.38 "/><polygon class="st7" points="5.67,190.88 31.14,220.25 70.17,242.82 46.84,215.93 "/><polygon class="st7" points="133.74,72.36 73.25,171.32 109.91,180.52 158.71,99.1 "/></g></svg>