<svg version="1.1" id="Layer_1" xmlns="http://www.w3.org/2000/svg" xmlns:xlink="http://www.w3.org/1999/xlink" x="0px" y="0px" viewBox="0 0 300.17 536.47" style="enable-background:new 0 0 300.17 536.47;" xml:space="preserve" width="100%" height="100%" preserveAspectRatio="none"><style type="text/css"> .st0{fill:#B3FF66;} .st1{display:none;fill:#00FF00;} .st2{fill:#00FF00;} .st3{fill:none;stroke:#00FF00;stroke-miterlimit:10;} .st4{clip-path:url(#SVGID_00000070105660626900616350000001724923842669969084_);} .st5{fill:#00FF00;stroke:#000000;stroke-linecap:round;stroke-linejoin:round;stroke-miterlimit:10;} .st6{fill:#B3FF66;stroke:#000000;stroke-linecap:round;stroke-linejoin:round;stroke-miterlimit:10;} .st7{fill:#FFFFFF;stroke:#000000;stroke-linecap:round;stroke-linejoin:round;stroke-miterlimit:10;} .st8{clip-path:url(#SVGID_00000091735800506334850690000010401619717253004439_);} .st9{fill:#00FF00;stroke:#000000;stroke-miterlimit:10;} .st10{fill:#FFFFFF;} .st11{fill:none;stroke:#000000;stroke-miterlimit:10;} .st12{fill:none;stroke:#B3FF66;} .st13{clip-path:url(#SVGID_00000041984785530113783300000017822135355207557261_);} .st14{stroke:#FFFFFF;stroke-linecap:round;stroke-linejoin:round;stroke-miterlimit:10;} .st15{clip-path:url(#SVGID_00000116193741033495151820000013564814741822057374_);} .st16{fill:#262B32;stroke:#FFFFFF;stroke-linecap:round;stroke-linejoin:round;stroke-miterlimit:10;} .st17{clip-path:url(#SVGID_00000181778904196706280630000008383222326472043927_);} .st18{fill:none;stroke:#000000;stroke-width:2.5689;stroke-miterlimit:10;} </style><g><rect class="st2" width="300.17" height="537.4"/><path d="M251.26,380.59c-52.54-17.77-105.09-35.56-157.62-53.35c-0.33-0.11-0.66-0.17-1.01-0.17c-10.37,0-20.73,0.01-31.1-0.01 c-0.54,0-0.63,0.15-0.63,0.66c0.01,23.53,0.01,47.06,0.01,70.6c0,23.55,0,47.1-0.01,70.65c0,0.53,0.14,0.64,0.65,0.64 c10.37-0.02,20.73-0.01,31.1-0.01c0.31,0,0.61-0.04,0.91-0.13c52.58-16.85,105.15-33.71,157.74-50.54 c0.44-0.14,0.52-0.35,0.52-0.76c-0.01-12.26-0.01-24.51,0-36.77C251.81,380.94,251.7,380.74,251.26,380.59z M218.05,400.77 c-0.24,0.38-0.93,0.35-1.42,0.49c-35.95,10.1-71.91,20.19-107.87,30.29c-5,1.4-10,2.81-15.01,4.21c-0.61,0.17-0.61,0.17-0.61-0.44 c0-12.33,0-24.65,0-36.98c0-12.31,0-24.62,0-36.93c0-0.65,0-0.65,0.6-0.47c41.28,12.53,82.56,25.07,123.84,37.6 c0.41,0.12,0.6,0.28,0.55,0.73C218.09,399.77,218.29,400.4,218.05,400.77z"/><path d="M212.68,88.82L194,108.97V88.82h-45.82l-45.45,49.31L41.7,205.42h78.33l16.74-17.63v17.58l47.73,0l16.74-17.61v17.62h57.23 V88.82H212.68z"/><line class="st18" x1="0" y1="268.7" x2="300.17" y2="268.7"/></g></svg>