<svg width="197.188" height="17" viewBox="0 0 197.188 17" xmlns="http://www.w3.org/2000/svg"><path d="M0 13.11h2.719l.23-2.115h1.439l.252 2.115h2.769L5.618 2.795H1.69zm3.194-4.15l.46-3.95.482 3.95zm4.575 4.15h2.647V9.434h.467c1.942 0 3.172-.748 3.172-3.309v-.15c0-2.389-1.172-3.18-3.2-3.18H7.768zm2.647-5.539v-2.92h.108c.611 0 .884.28.884 1.208v.367c0 .993-.309 1.345-.892 1.345zm7.552 5.719c2.223 0 3.51-1.144 3.51-3.41V5.99c0-2.244-1.33-3.374-3.51-3.374-2.186 0-3.51 1.165-3.51 3.374V9.88c0 2.266 1.28 3.41 3.51 3.41zm-.719-2.964V5.58c0-.518.202-.9.72-.9.517 0 .719.39.719.9v4.747c0 .518-.202.9-.72.9-.517 0-.719-.382-.719-.9zm7.891 2.957c2.007 0 3.223-.914 3.223-2.906v-.144c0-1.712-.713-2.352-1.863-3.108l-1.195-.784c-.431-.287-.633-.532-.633-1.043v-.115c0-.41.195-.604.504-.604.31 0 .496.223.496.655v.633h2.619v-.511c0-1.87-1.396-2.726-3.093-2.726-1.885 0-3.216.928-3.216 2.891v.072c0 1.403.583 2.072 1.67 2.784l1.287.842c.482.316.705.525.705 1.186v.18c0 .504-.18.741-.518.741-.324 0-.511-.223-.511-.683v-.799h-2.669v.705c0 1.763 1.202 2.734 3.194 2.734zm5.294-.173h2.654V4.946h1.77V2.795h-6.2v2.15h1.776zm4.985 0h5.43v-1.978h-2.783V8.765h2.31V6.787h-2.31V4.773h2.784V2.795h-5.431zM44.62 13.11h4.373V9.449h.82c1.107 0 1.668.345 1.668 1.251v2.41h4.381v-2.352c0-1.633-.87-2.144-2.467-2.417 1.316-.302 2.395-1.079 2.395-2.726 0-1.885-1.475-2.82-4.654-2.82H44.62zm4.373-5.862v-2.18h.992c.914 0 1.496.266 1.496 1.043 0 .842-.611 1.137-1.496 1.137zm11.58 7.2h3.022v-1.13c2.345-.273 4.035-1.244 4.035-3.236 0-1.957-1.532-2.712-3.474-3.31l-2.022-.553c-.604-.194-1.043-.352-1.043-.834 0-.432.396-.705.928-.705.583 0 1.007.302 1.043 1.028h4.345c-.072-1.848-1.813-2.783-3.834-3.078V1.507h-3.021v1.115c-2.187.295-3.863 1.302-3.863 3.295 0 1.892 1.662 2.597 3.503 3.143l1.741.49c.791.23 1.201.453 1.201.97 0 .497-.41.705-.92.705-.691 0-1.144-.374-1.151-1.122H56.56c.028 1.892 1.618 2.92 4.013 3.208zm13.049-1.086c3.136 0 5.524-1.151 5.524-4.036 0-2.316-1.676-3.474-3.553-3.474-1.374 0-2.432.496-2.957 1.165V5.183h5.935V2.795h-9.984v6.186h3.884c.137-.496.575-.849 1.165-.849.662 0 1.1.41 1.1 1.439 0 1.021-.416 1.546-1.078 1.546-.662 0-1.014-.51-1.043-1.186h-4.402c.079 2.359 2.273 3.43 5.409 3.43zm11.883 0c3.402 0 5.596-1.784 5.596-5.438 0-3.647-2.23-5.402-5.596-5.402-3.36 0-5.596 1.755-5.596 5.402 0 3.654 2.2 5.438 5.596 5.438zm-1.201-5.438c0-2.093.295-3.072 1.2-3.072.914 0 1.21.979 1.21 3.072s-.296 3.114-1.21 3.114c-.905 0-1.2-1.021-1.2-3.114zM100.884 13.376q-1.878 0-3.197-.56-1.32-.562-2.033-1.756-.712-1.194-.712-3.064 0-1.907.748-3.126.748-1.219 2.05-1.776 1.302-.558 3.029-.558 1.438 0 2.607.406 1.17.407 1.881 1.252.712.845.77 2.104h-4.064q0-.669-.324-1.029-.324-.36-.92-.36-.835 0-1.241.699-.407.697-.407 2.309 0 1.114.202 1.783.201.67.65.979.45.309 1.205.309.396 0 .784-.097.389-.097.59-.255l-.309.848V9.73h-2.064V7.543h5.898v4.89q-.49.231-1.327.45-.838.22-1.845.356-1.007.137-1.971.137zm5.56-.266l3.13-10.315h5.372l3.1 10.315h-3.984l-.525-2.122-.403-1.964-1.094-4.646h.425l-1.122 4.653-.446 2.058-.511 2.021h-3.942zm2.92-1.74V8.78h6.072v2.59h-6.071zm9.244 1.74V2.795h4.74l2.892 6.294h-.353V2.795h3.568V13.11h-4.481l-3.187-6.891h.389v6.891h-3.568zm12.055 0V2.795h3.813v3.676h2.496V2.795h3.812V13.11h-3.812V9.204h-2.496v3.906h-3.813zm11.33 0V2.795h8.502v2.431h-4.69v1.417h3.834V9.09h-3.834v1.575h4.69v2.446h-8.502zM154.243 13.11h3.165V9.103h.446c.798 0 1.15.288 1.15.943v3.064h3.18v-3.007c0-1.302-.576-1.74-1.935-1.985 1.064-.273 1.92-.993 1.92-2.597 0-1.899-1.165-2.726-3.69-2.726h-4.236zm3.165-5.963V4.809h.503c.734 0 1.122.302 1.122 1.093 0 .856-.431 1.245-1.187 1.245zm8.07 7.1h2.295v-1.022c1.618-.28 2.683-1.216 2.683-3.007 0-1.863-1.021-2.539-2.54-3.323l-1.129-.583c-.51-.266-.82-.453-.82-.978 0-.417.267-.647.633-.647.389 0 .662.259.662.827v.216h3.064v-.18c0-1.654-1.129-2.546-2.553-2.841V1.68h-2.295V2.71c-1.553.302-2.647 1.251-2.647 2.963 0 1.683.935 2.345 2.28 3.029l1.209.611c.597.302.913.504.913 1.13 0 .553-.251.79-.647.79-.432 0-.69-.28-.69-.855v-.338h-3.144v.223c0 1.711 1.043 2.683 2.726 2.97zm9.351-.936c2.266 0 3.791-1.007 3.791-3.467V8.88c0-1.877-1.028-2.97-2.417-2.97-.992 0-1.74.431-2.107 1.028V4.924h4.136V2.795h-7.1v5.992h2.813c.021-.561.295-.892.77-.892.474 0 .719.338.719 1.108v1.201c0 .64-.23.985-.662.985-.46 0-.67-.374-.67-.97v-.274h-3.164c0 2.338 1.525 3.366 3.891 3.366zm8.294 0c2.403 0 3.856-1.237 3.856-3.855v-3.13c0-2.56-1.518-3.725-3.856-3.725-2.345 0-3.863 1.172-3.863 3.51v3.345c0 2.618 1.446 3.855 3.863 3.855zm-.698-3.316V5.802c0-.576.166-.971.698-.971.525 0 .69.403.69.97v4.194c0 .64-.136 1.087-.69 1.087-.54 0-.698-.446-.698-1.087z"/></svg>