<svg width="371.888" height="28" viewBox="0 0 371.888 28" xmlns="http://www.w3.org/2000/svg"><path d="M6.934 22.594c3.857 0 6.591-1.538 6.591-5.261 0-3.162-1.745-4.31-4.358-5.64l-1.94-.989c-.88-.451-1.404-.769-1.404-1.66 0-.708.451-1.098 1.086-1.098.672 0 1.135.439 1.135 1.403v.367h5.262V9.41c0-3.527-3.052-5.004-6.324-5.004-3.686 0-6.555 1.623-6.555 5.212 0 2.856 1.612 3.98 3.919 5.14l2.075 1.037c1.025.512 1.575.854 1.575 1.916 0 .94-.428 1.343-1.111 1.343-.745 0-1.184-.476-1.184-1.453v-.573H.293v.378c0 3.516 2.624 5.188 6.64 5.188zm7.739-.354H26.16v-3.687h-6.116V15.1h5.03v-3.687h-5.03V8.41h6.116V4.735H14.673zM31.25 22.24h3.662v-7.434c1.038 0 1.306.305 1.306 1.123v6.311h3.687v-6.348c0-1.599-.488-2.282-2.478-2.55 1.587-.367 2.514-1.515 2.514-4.237 0-3.15-1.342-4.37-4.235-4.37H31.25zm3.662-10.303V7.604h.134c.94 0 1.197.525 1.197 1.697v.561c0 1.44-.306 2.075-1.184 2.075zm5.994 10.303h7.055v-3.052h-3.393v-4.54h2.844v-3.053h-2.844V7.787h3.393V4.735h-7.055zm12.597.244c1.575 0 3.223-.476 4.09-1.062v-8.594H53.04v2.979h1.025v3.406a1.258 1.258 0 01-.586.134c-.537 0-.94-.22-.94-.94V8.287c0-.44.183-.744.61-.744.428 0 .61.305.61.744v2.234h3.785v-1.99c0-2.416-1.587-4.04-4.334-4.04-2.856 0-4.48 1.648-4.48 4.187v9.717c0 2.673 1.612 4.09 4.773 4.09zm5.115-.244h3.662V4.735h-3.662zm8.765.244c2.844 0 4.407-1.587 4.407-4.59v-.866c0-2.38-.757-3.406-2.088-4.554l-2.038-1.745c-.599-.513-.757-1.013-.757-1.82v-.292c0-.684.22-.952.622-.952.39 0 .562.317.562.842v1.6h3.65v-1.32c0-2.856-1.721-4.296-4.175-4.296-2.71 0-4.407 1.672-4.407 4.443v.562c0 1.843.513 3.052 1.978 4.223l2.075 1.673c.622.5.83.976.83 2.1v.805c0 .61-.17 1.013-.623 1.013-.39 0-.598-.28-.598-.879v-2.16h-3.686v2.112c0 2.453 1.489 4.101 4.248 4.101zm7.092-.244h3.662V7.909h2.259V4.735h-8.18V7.91h2.26zm6.677 0h3.662v-7.434c1.038 0 1.307.305 1.307 1.123v6.311h3.686v-6.348c0-1.599-.488-2.282-2.478-2.55 1.587-.367 2.515-1.515 2.515-4.237 0-3.15-1.343-4.37-4.236-4.37h-4.456zm3.662-10.303V7.604h.135c.94 0 1.196.525 1.196 1.697v.561c0 1.44-.305 2.075-1.184 2.075zm5.494 10.303h3.735l.256-3.857h1.44l.318 3.857h3.82L97.804 4.735h-5.664zm4.162-6.91l.476-7.494h.025l.573 7.495zm5.896 6.91h3.418V11.608h.025l2.172 10.632h4.236V4.735H106.8v9.302h-.024l-1.843-9.302h-4.566zm10.974 0h3.846c3.32 0 4.76-1.453 4.76-3.992V8.74c0-2.502-1.513-4.004-4.394-4.004h-4.212zm3.662-3.113V7.847h.196c.61 0 .964.257.964.99v9.228c0 .806-.305 1.062-.976 1.062zm10.267 3.357c2.954 0 4.394-1.575 4.394-4.358V8.85c0-2.734-1.575-4.358-4.394-4.358-2.82 0-4.395 1.697-4.395 4.358v9.277c0 2.783 1.428 4.358 4.395 4.358zm-.562-3.723V8.214c0-.39.17-.671.562-.671.378 0 .561.305.561.671v10.547c0 .39-.17.671-.561.671s-.562-.28-.562-.671zM144.263 22.704c5.786 0 10.34-2.283 10.705-7.239h-7.861c-.134 1.733-.879 3.137-2.71 3.137-2.1 0-2.954-1.843-2.954-5.139 0-3.32.928-5.151 3.027-5.151 1.66 0 2.442 1.147 2.515 2.82h7.947c-.367-4.322-4.493-6.885-10.425-6.885-6.616 0-11.035 3.003-11.035 9.204 0 6.177 4.138 9.253 10.79 9.253zm22.705.024c6.665 0 11.218-2.99 11.218-9.265 0-6.372-4.822-9.216-11.218-9.216-6.36 0-11.218 2.893-11.218 9.216 0 6.275 4.602 9.265 11.218 9.265zm-3.247-9.265c0-3.027.903-5.151 3.247-5.151 2.331 0 3.235 2.112 3.235 5.151 0 3.052-.891 5.2-3.235 5.2-2.356 0-3.247-2.148-3.247-5.2zm16.162 8.777h6.653V11.913l3.112 10.327h5.347l3.088-10.413V22.24h6.653V4.735h-9.301l-3.028 10.095-2.966-10.095h-9.558zM220.313 22.68c5.688 0 9.924-2.833 9.924-9.217 0-6.543-4.431-9.167-9.924-9.167-5.494 0-9.925 2.697-9.925 9.167 0 6.384 4.236 9.216 9.924 9.216zm-2.918-9.217c0-2.783.598-5.139 2.917-5.139 2.32 0 2.918 2.356 2.918 5.14 0 2.807-.598 5.187-2.917 5.187-2.32 0-2.918-2.38-2.918-5.188zM243.445 22.606c4.175 0 7.312-1.806 7.312-7.092h-5.591v.769c0 1.355-.354 2.344-1.636 2.344-1.343 0-1.745-1.013-1.745-2.234v-5.81c0-1.307.451-2.247 1.72-2.247 1.27 0 1.661.928 1.661 2.258v.44h5.59c0-4.627-3.05-6.665-7.201-6.665-4.42 0-7.434 2.356-7.434 6.946v4.455c0 4.505 2.783 6.836 7.324 6.836zm15.686 0c4.626 0 7.58-2.32 7.58-7.275V11.51c0-4.932-2.954-7.141-7.58-7.141-4.639 0-7.58 2.27-7.58 7.141v3.82c0 4.957 2.941 7.276 7.58 7.276zm-2.478-18.774h4.736l1.099-2.783h-5.36zm.561 12.39v-5.469c0-1.391.525-2.417 1.917-2.417 1.391 0 1.916 1.026 1.916 2.417v5.469c0 1.392-.525 2.417-1.916 2.417-1.392 0-1.917-1.025-1.917-2.417zm10.901 6.018h6.775c4.736 0 7.398-2.063 7.398-6.812v-3.991c0-4.724-2.723-6.702-7.105-6.702h-7.068zm5.371-4.028V8.763H274c1.721 0 2.588.623 2.588 2.588v4.126c0 2.051-.867 2.735-2.588 2.735zm10.23 4.028h5.37V4.735h-5.37zm14.697.366c2.722 0 5.53-.72 6.86-1.477v-8.325h-8.02v3.589h2.723v2.124a3.87 3.87 0 01-1.184.183c-1.868 0-2.637-.964-2.637-2.918v-5.285c0-1.209.488-2.173 1.782-2.173 1.33 0 1.648 1.099 1.648 2.112v.195h5.652c0-4.382-3.186-6.262-7.154-6.262-4.223 0-7.592 2.112-7.592 7.19v3.894c0 5.127 3.113 7.153 7.922 7.153zm15.65 0c4.626 0 7.58-2.32 7.58-7.275V11.51c0-4.932-2.954-7.141-7.58-7.141-4.64 0-7.581 2.27-7.581 7.141v3.82c0 4.957 2.942 7.276 7.58 7.276zm-1.917-6.384v-5.469c0-1.391.525-2.417 1.916-2.417 1.392 0 1.917 1.026 1.917 2.417v5.469c0 1.392-.525 2.417-1.916 2.417-1.392 0-1.917-1.025-1.917-2.417z"/></svg>