<?xml version="1.0" encoding="UTF-8"?><svg id="Component_43_1" xmlns="http://www.w3.org/2000/svg" xmlns:xlink="http://www.w3.org/1999/xlink" viewBox="0 0 3756.09 642.84"><defs><style>.cls-1{fill:none;}.cls-2{clip-path:url(#clippath);}.cls-3{fill:#fff;}</style><clipPath id="clippath"><rect class="cls-1" x="0" y="0" width="3756.09" height="642.84"/></clipPath></defs><g class="cls-2"><g id="Group_673"><path id="Path_278" class="cls-3" d="M2443.71,232.12c.06,.42,0,395.44,0,395.44,0,5.3-3.57,10.7-8.8,10.71h-53.69c-31.4,.04-57.47-26.72-57.51-58.52V233.58c-2.4-74.88-54.99-114.46-119.48-114.36s-116.97,41.39-119.16,116.28v392.57c0,5.3-3.72,10.19-8.95,10.2h-53.69c-31.4,.04-57.47-27.98-57.51-59.78V234.09c-2.4-74.89-54.99-114.46-119.48-114.36s-116.97,39.81-119.15,114.7v394.15c0,5.3-3.72,9.68-8.95,9.69h-53.69c-31.4,.04-57.33-25.7-57.37-57.51,0,0-.03-346.83,0-347.16C1609.38,81.58,1715.15,.92,1845.28,.73c71.41-.1,135.56,24.06,179.49,71C2068.57,24.67,2132.64,.33,2204.06,.23c130.04-.18,235.98,80.07,239.65,231.9"/><path id="Path_279" class="cls-3" d="M3680.41,630.64c1.45,2.19,.84,5.13-1.34,6.58-.81,.54-1.77,.81-2.74,.78l-95.87,.26c-22.47,.07-44.4-2.68-63.83-29.96l-98.1-144.76c-7.68-11.33-18.83-24.75-34.64-24.75s-26.97,13.42-34.64,24.75l-98.1,144.76c-19.43,27.27-41.36,30.03-63.83,29.96h-95.88c-2.72-.03-4.91-2.26-4.88-4.99,.01-.93,.29-1.85,.79-2.63l189.19-279.3c10.76-16.43,10.76-37.67,0-54.1L3087.33,17.95c-1.46-2.22-.84-5.2,1.38-6.66,.8-.53,1.75-.8,2.71-.79h95.88c22.47-.06,44.4,2.51,63.83,29.79l98.1,144.76c7.68,11.33,18.83,24.76,34.64,24.76s26.96-13.43,34.64-24.76l98.1-144.76c19.43-27.27,41.36-29.84,63.83-29.77h95.87c2.65-.04,4.83,2.07,4.88,4.72,.02,.96-.26,1.91-.79,2.72l-189.19,279.3c-10.76,16.43-10.76,37.67,0,54.1l189.2,279.3Z"/><path id="Path_280" class="cls-3" d="M3049.63,10.51h-37.77c-20.69-.01-39.82,11-50.2,28.9l-13.97,24.38C2893.36,18.05,2822.93,.23,2764.73,.23c-176.01,0-293.18,124.36-293.18,321.31s119.14,321.31,291.77,321.31c66.1,0,131.61-21.88,173.53-55.79,2.37,29.78,27.31,51.2,57.78,51.2h54.79c5.34,0,9.67-2.3,9.67-7.63l.22-610.48c0-5.33-4.33-9.65-9.67-9.64h0m-287.48,512.75c-100.09,0-173.43-74.5-173.43-201.72s73.34-201.72,173.43-201.72,173.43,74.5,173.43,201.72-73.34,201.72-173.43,201.72"/><path id="Path_281" class="cls-3" d="M286.46,244.02h-110.69V10.5H0V638.26H175.77v-243.57h110.69v243.57h170.52V10.5h-170.52V244.02Z"/><path id="Path_282" class="cls-3" d="M1238.46,0c-175.67-.13-265.44,129.19-287.61,181.38,.21-78.36-77.02-170.84-167.35-170.95H492.44V638.25l271.36,.05c109.41,0,187.25-94.8,187.39-176.09,24.97,51.16,111.6,179.22,287.28,179.16,175.87-.07,319-146.2,318.96-322.1C1557.38,139.66,1414.33,.13,1238.46,0m-497.4,492.04h-86.32v-106.1h86.31c25.11,0,44.89,24.8,44.89,53.05s-19.78,53.05-44.89,53.05m.32-235.72h-86.32v-106.1h86.32c25.11,0,44.89,24.79,44.89,53.04s-19.78,53.06-44.89,53.06m114.88,63.08c19.77-2.5,52.73-25.11,64.34-39.55-4.08,17.9-4.39,69.68,.38,87.58-13.25-20.4-44.63-45.52-64.72-48.03m382.31,159.8c-88.26,0-159.8-71.55-159.79-159.81,0-88.26,71.55-159.8,159.81-159.79,88.25,0,159.79,71.55,159.79,159.8s-71.54,159.8-159.8,159.8h0"/><path id="Path_283" class="cls-3" d="M1238.56,193.78c-69.38,0-125.62,56.24-125.63,125.62,0,69.38,56.24,125.62,125.62,125.63,69.38,0,125.62-56.24,125.63-125.62h0c0-69.38-56.24-125.63-125.62-125.63h0"/><path id="Path_284" class="cls-3" d="M3696.5,16.3h8.67v24.94h7.02V16.3h8.91v-5.8h-24.59v5.8Z"/><path id="Path_285" class="cls-3" d="M3749.08,10.51l-8.33,13.66-8.33-13.66h-7.02v30.74h7.02V23.37l7.94,13.05h.79l7.94-13.05v17.88h7.02V10.51h-7.02Z"/></g></g></svg>